<svg aria-hidden="true" style="position: absolute; width: 0; height: 0; overflow: hidden;" version="1.1" xmlns="http://www.w3.org/2000/svg" xmlns:xlink="http://www.w3.org/1999/xlink">
<defs>

<symbol id="icon-instagram" viewBox="0 0 32 32">
<path d="M31.968 9.408c-0.074-1.701-0.349-2.869-0.742-3.882-0.424-1.111-1.054-2.059-1.85-2.837l-0.001-0.001c-0.78-0.792-1.724-1.419-2.778-1.827l-0.054-0.018c-1.019-0.394-2.181-0.667-3.882-0.742-1.712-0.082-2.256-0.101-6.602-0.101-4.344 0-4.888 0.019-6.595 0.094-1.699 0.074-2.869 0.349-3.88 0.742-1.112 0.424-2.060 1.054-2.839 1.85l-0.001 0.001c-0.791 0.78-1.418 1.724-1.825 2.778l-0.018 0.054c-0.395 1.019-0.669 2.181-0.744 3.882-0.082 1.712-0.101 2.256-0.101 6.602 0 4.344 0.019 4.888 0.094 6.595 0.075 1.701 0.35 2.869 0.744 3.882 0.426 1.11 1.055 2.057 1.849 2.837l0.001 0.001c0.8 0.813 1.77 1.443 2.832 1.843 1.019 0.395 2.182 0.67 3.882 0.744 1.707 0.075 2.251 0.094 6.595 0.094 4.346 0 4.89-0.019 6.595-0.094 1.701-0.074 2.869-0.349 3.882-0.742 2.157-0.85 3.833-2.526 4.664-4.628l0.019-0.055c0.394-1.019 0.669-2.182 0.744-3.882 0.075-1.707 0.093-2.251 0.093-6.595s-0.006-4.888-0.080-6.595zM29.088 22.474c-0.070 1.563-0.333 2.406-0.55 2.97-0.552 1.399-1.64 2.486-3.004 3.024l-0.036 0.012c-0.56 0.219-1.411 0.482-2.968 0.55-1.688 0.075-2.194 0.094-6.464 0.094-4.269 0-4.782-0.019-6.464-0.094-1.563-0.069-2.406-0.331-2.97-0.55-0.721-0.269-1.334-0.676-1.836-1.192l-0.001-0.001c-0.517-0.503-0.924-1.117-1.184-1.803l-0.011-0.034c-0.218-0.563-0.48-1.413-0.549-2.97-0.075-1.688-0.094-2.195-0.094-6.464 0-4.27 0.019-4.784 0.094-6.464 0.069-1.563 0.331-2.406 0.549-2.97 0.269-0.722 0.678-1.337 1.198-1.837l0.002-0.002c0.504-0.517 1.119-0.923 1.806-1.182l0.034-0.011c0.56-0.219 1.411-0.48 2.968-0.55 1.688-0.074 2.195-0.093 6.464-0.093 4.275 0 4.782 0.019 6.464 0.093 1.563 0.069 2.406 0.331 2.97 0.55 0.693 0.256 1.325 0.662 1.837 1.194 0.531 0.52 0.938 1.144 1.195 1.84 0.218 0.56 0.48 1.411 0.549 2.968 0.075 1.688 0.094 2.194 0.094 6.464 0 4.269-0.019 4.768-0.094 6.458z"></path>
<path d="M16.059 7.782c-4.539 0.002-8.218 3.682-8.219 8.221v0c0.091 4.471 3.737 8.060 8.221 8.060s8.13-3.589 8.221-8.052l0-0.009c-0.001-4.54-3.681-8.22-8.221-8.221h-0zM16.059 21.334c-2.945-0-5.332-2.388-5.332-5.333s2.388-5.333 5.333-5.333c0 0 0.001 0 0.001 0h-0c2.946 0 5.334 2.388 5.334 5.334s-2.388 5.334-5.334 5.334v0zM26.525 7.458c0 1.060-0.86 1.92-1.92 1.92s-1.92-0.86-1.92-1.92v0c0-1.060 0.86-1.92 1.92-1.92s1.92 0.86 1.92 1.92v0z"></path>
</symbol>

<symbol id="icon-twitter" viewBox="0 0 32 32">
<path d="M32 6.078c-1.1 0.493-2.376 0.857-3.713 1.028l-0.068 0.007c1.36-0.817 2.382-2.078 2.873-3.579l0.013-0.046c-1.197 0.722-2.591 1.273-4.076 1.573l-0.084 0.014c-1.2-1.279-2.9-2.076-4.787-2.076-3.622 0-6.558 2.936-6.558 6.558 0 0.001 0 0.003 0 0.004v-0c0 0.52 0.043 1.021 0.152 1.496-5.454-0.266-10.28-2.88-13.522-6.861-0.564 0.949-0.899 2.092-0.902 3.313v0.001c0 2.272 1.171 4.286 2.914 5.451-1.091-0.030-2.107-0.325-2.994-0.823l0.033 0.017v0.072c0.003 3.165 2.236 5.807 5.213 6.44l0.043 0.008c-0.499 0.136-1.071 0.215-1.662 0.215-0.020 0-0.041-0-0.061-0l0.003 0c-0.419 0-0.843-0.024-1.242-0.112 0.85 2.598 3.261 4.509 6.13 4.57-2.215 1.746-5.045 2.8-8.122 2.8-0.004 0-0.008 0-0.013 0h0.001c-0.018 0-0.040 0-0.062 0-0.531 0-1.055-0.034-1.569-0.099l0.061 0.006c2.826 1.846 6.287 2.944 10.004 2.944 0.021 0 0.042-0 0.063-0h-0.003c12.072 0 18.672-10 18.672-18.669 0-0.288-0.010-0.57-0.024-0.848 1.299-0.936 2.39-2.064 3.258-3.355l0.030-0.047z"></path>
</symbol>

<symbol id="icon-linkedin" viewBox="0 0 32 32">
<path d="M31.992 32h0.008v-11.738c0-5.741-1.235-10.163-7.947-10.163-3.227 0-5.392 1.77-6.277 3.45h-0.093v-2.914h-6.365v21.363h6.627v-10.578c0-2.786 0.528-5.48 3.978-5.48 3.398 0 3.45 3.179 3.45 5.658v10.402h6.619zM0.528 10.635h6.635v21.365h-6.635v-21.365zM3.843 0c-2.123 0-3.843 1.721-3.843 3.843v0c0 2.12 1.722 3.878 3.843 3.878 2.12 0 3.842-1.757 3.842-3.878s-1.72-3.841-3.841-3.843h-0z"></path>
</symbol>

<symbol id="icon-facebook" viewBox="0 0 32 32">
<path d="M19 6h5v-6h-5c-3.86 0-7 3.14-7 7v3h-4v6h4v16h6v-16h5l1-6h-6v-3c0-0.542 0.458-1 1-1z"></path>
</symbol>

<symbol id="icon-map" viewBox="0 0 24 24">
<path d="M22 10c0-2.761-1.12-5.263-2.929-7.071s-4.31-2.929-7.071-2.929-5.263 1.12-7.071 2.929-2.929 4.31-2.929 7.071c0 0.569 0.053 1.128 0.15 1.676 0.274 1.548 0.899 3.004 1.682 4.32 2.732 4.591 7.613 7.836 7.613 7.836 0.331 0.217 0.765 0.229 1.109 0 0 0 4.882-3.245 7.613-7.836 0.783-1.316 1.408-2.772 1.682-4.32 0.098-0.548 0.151-1.107 0.151-1.676zM20 10c0 0.444-0.041 0.887-0.119 1.328-0.221 1.25-0.737 2.478-1.432 3.646-1.912 3.214-5.036 5.747-6.369 6.74-1.398-0.916-4.588-3.477-6.53-6.74-0.695-1.168-1.211-2.396-1.432-3.646-0.077-0.441-0.118-0.884-0.118-1.328 0-2.209 0.894-4.208 2.343-5.657s3.448-2.343 5.657-2.343 4.208 0.894 5.657 2.343 2.343 3.448 2.343 5.657zM16 10c0-1.104-0.449-2.106-1.172-2.828s-1.724-1.172-2.828-1.172-2.106 0.449-2.828 1.172-1.172 1.724-1.172 2.828 0.449 2.106 1.172 2.828 1.724 1.172 2.828 1.172 2.106-0.449 2.828-1.172 1.172-1.724 1.172-2.828zM14 10c0 0.553-0.223 1.051-0.586 1.414s-0.861 0.586-1.414 0.586-1.051-0.223-1.414-0.586-0.586-0.861-0.586-1.414 0.223-1.051 0.586-1.414 0.861-0.586 1.414-0.586 1.051 0.223 1.414 0.586 0.586 0.861 0.586 1.414z"></path>
</symbol>

<symbol id="icon-phone" viewBox="0 0 32 32">
<path d="M22 20c-2 2-2 4-4 4s-4-2-6-4-4-4-4-6 2-2 4-4-4-8-6-8-6 6-6 6c0 4 4.109 12.109 8 16s12 8 16 8c0 0 6-4 6-6s-6-8-8-6z"></path>
</symbol>

<symbol id="icon-mail" viewBox="0 0 32 32">
<path d="M26.666 0h-21.332c-2.934 0-5.334 2.4-5.334 5.333v21.333c0 2.934 2.4 5.334 5.334 5.334h21.332c2.936 0 5.334-2.4 5.334-5.334v-21.333c0-2.934-2.398-5.333-5.334-5.333zM8 8h16c0.286 0 0.563 0.061 0.817 0.177l-8.817 10.286-8.817-10.287c0.254-0.116 0.531-0.177 0.817-0.177zM6 22v-12c0-0.042 0.002-0.084 0.004-0.125l5.864 6.842-5.8 5.8c-0.045-0.167-0.069-0.34-0.069-0.517zM24 24h-16c-0.177 0-0.35-0.024-0.517-0.069l5.691-5.691 2.826 3.297 2.826-3.297 5.691 5.691c-0.167 0.045-0.34 0.069-0.517 0.069zM26 22c0 0.177-0.024 0.35-0.069 0.517l-5.8-5.8 5.864-6.842c0.003 0.041 0.004 0.083 0.004 0.125v12z"></path>
</symbol>

<symbol id="icon-menu" viewBox="0 0 32 32">
<path d="M6.4 11.733v-2.133h19.2v2.133h-19.2zM6.4 17.067h19.2v-2.133h-19.2v2.133zM6.4 22.4h19.2v-2.133h-19.2v2.133z"></path>
</symbol>

<symbol id="icon-logo" viewBox="0 0 39 32">
<path d="M22.372 9.646l-0.749-0.572c-0.117-0.095-0.267-0.14-0.416-0.125s-0.288 0.088-0.384 0.205l-10.36 11.905 0.16 0.177 2.566-2.367c-0.086-0.034-0.156-0.098-0.2-0.179s-0.058-0.175-0.039-0.266c0.018-0.090 0.068-0.172 0.14-0.229s0.162-0.088 0.254-0.087c0.083-0 0.164 0.027 0.231 0.076s0.116 0.119 0.141 0.198l3.383-3.139c0.052-0.042 0.116-0.065 0.183-0.065s0.131 0.023 0.183 0.065l0.171 0.126c0.058 0.042 0.129 0.060 0.2 0.052s0.136-0.043 0.183-0.097l4.423-4.963c0.047-0.049 0.083-0.108 0.105-0.172s0.030-0.133 0.024-0.201-0.028-0.133-0.062-0.192c-0.034-0.059-0.081-0.11-0.136-0.149z"></path>
<path d="M27.24 12.997c-2.267 1.614-4.807 2.806-7.497 3.517-2.67 0.68-5.402 1.086-8.154 1.212 0.055 0.406 0.155 0.805 0.297 1.189 1.554 1.407 13.257-0.995 15.543-3.774 0.486-0.578-0.189-2.144-0.189-2.144zM13.343 18.869c-0.077 0-0.152-0.023-0.216-0.066s-0.114-0.104-0.143-0.174-0.037-0.149-0.022-0.225c0.015-0.075 0.052-0.145 0.106-0.199s0.124-0.091 0.199-0.106c0.075-0.015 0.153-0.007 0.225 0.022s0.132 0.079 0.174 0.143 0.066 0.139 0.066 0.216c0.001 0.051-0.009 0.102-0.028 0.15s-0.048 0.091-0.084 0.127c-0.036 0.036-0.079 0.065-0.127 0.084s-0.098 0.029-0.15 0.028z"></path>
<path d="M2.286 12.174l0.091-0.395 1.486 0.337c0.123 0.227 0.198 0.475 0.223 0.732 0.028 0.272 0.011 0.546-0.051 0.812-0.074 0.369-0.243 0.712-0.491 0.995-0.236 0.267-0.54 0.465-0.88 0.572-0.35 0.108-0.723 0.122-1.080 0.040-0.358-0.077-0.688-0.251-0.954-0.503-0.262-0.242-0.45-0.553-0.543-0.898-0.103-0.374-0.103-0.769 0-1.144 0.061-0.28 0.172-0.547 0.326-0.789 0.146-0.22 0.342-0.402 0.571-0.532l0.206 0.314c-0.197 0.121-0.366 0.282-0.496 0.474s-0.218 0.408-0.258 0.636c-0.071 0.296-0.065 0.605 0.017 0.898 0.077 0.278 0.229 0.53 0.44 0.726 0.217 0.21 0.488 0.354 0.783 0.417 0.286 0.080 0.588 0.080 0.874 0 0.274-0.090 0.52-0.25 0.714-0.463 0.2-0.23 0.337-0.508 0.4-0.806 0.094-0.362 0.070-0.745-0.069-1.092l-1.309-0.332z"></path>
<path d="M5.52 8.577l-1.331 1.778 0.571 1.024-0.263 0.354-2.114-3.86 0.246-0.337 4.303 0.926-0.269 0.354-1.143-0.24zM5.143 8.486l-2.286-0.515 1.143 2.053 1.143-1.538z"></path>
<path d="M5.143 4.889l0.343-0.257 2.177 2.916 1.794-1.344 0.217 0.292-2.131 1.595-2.4-3.202z"></path>
<path d="M8.743 2.505l0.383-0.172 1.509 3.305 2.040-0.926 0.149 0.332-2.423 1.104-1.657-3.642z"></path>
<path d="M16.274 3.82l0.086 0.36-2.754 0.646-0.914-3.9 2.674-0.623 0.080 0.355-2.286 0.532 0.326 1.384 2.011-0.475 0.086 0.355-2.017 0.469 0.343 1.447 2.366-0.549z"></path>
<path d="M20.2 3.963l-0.954-1.258c-0.107 0.006-0.213 0.006-0.32 0l-1.074 0.034 0.040 1.269h-0.423l-0.131-4.003 1.52-0.006c0.43-0.040 0.86 0.076 1.211 0.326 0.148 0.119 0.268 0.271 0.349 0.444s0.122 0.361 0.12 0.551c0.017 0.283-0.057 0.563-0.211 0.801-0.164 0.228-0.396 0.398-0.663 0.486l1 1.338-0.463 0.017zM19.8 2.081c0.103-0.094 0.182-0.211 0.233-0.341s0.071-0.27 0.058-0.409c0.003-0.14-0.026-0.278-0.084-0.405s-0.145-0.239-0.253-0.327c-0.263-0.179-0.58-0.261-0.897-0.234l-1.086 0.040 0.069 2.001 1.063-0.034c0.324 0.012 0.642-0.091 0.897-0.292z"></path>
<path d="M23.309 2.899l-0.206 1.367-0.417-0.063 0.211-1.344-1.183-2.859 0.446 0.069 1.011 2.436 1.714-2.018 0.4 0.086-1.977 2.327z"></path>
<path d="M28.874 2.659l0.497 0.646-0.217 0.172-0.497-0.663-0.314 0.749-0.24-0.103 0.32-0.749-0.823 0.109v-0.274l0.811-0.091-0.503-0.646 0.223-0.172 0.44 0.652 0.309-0.755 0.246 0.103-0.291 0.766 0.823-0.114v0.28l-0.783 0.091z"></path>
<path d="M30.783 7.268c-0.135-0.208-0.219-0.445-0.246-0.692l0.337-0.149c0.025 0.227 0.099 0.445 0.217 0.64 0.128 0.219 0.294 0.413 0.491 0.572 0.204 0.195 0.464 0.321 0.743 0.36 0.101 0.009 0.203-0.006 0.296-0.045s0.176-0.1 0.241-0.178c0.047-0.052 0.084-0.114 0.106-0.181s0.031-0.138 0.025-0.208c-0.019-0.139-0.066-0.274-0.137-0.395-0.107-0.175-0.224-0.345-0.349-0.509-0.152-0.199-0.29-0.41-0.411-0.629-0.093-0.164-0.144-0.349-0.149-0.537-0-0.212 0.079-0.416 0.223-0.572 0.125-0.151 0.289-0.264 0.474-0.326 0.207-0.060 0.427-0.060 0.634 0 0.267 0.087 0.514 0.227 0.726 0.412 0.176 0.146 0.332 0.316 0.463 0.503 0.121 0.174 0.212 0.367 0.269 0.572l-0.326 0.172c-0.057-0.191-0.142-0.372-0.251-0.537-0.109-0.148-0.238-0.281-0.383-0.395-0.201-0.194-0.46-0.317-0.737-0.349-0.102-0.009-0.204 0.008-0.298 0.049s-0.176 0.105-0.239 0.185c-0.049 0.051-0.086 0.113-0.108 0.18s-0.031 0.138-0.023 0.209c0.013 0.144 0.060 0.283 0.137 0.406 0.080 0.131 0.194 0.303 0.349 0.509 0.153 0.195 0.291 0.401 0.411 0.618 0.095 0.164 0.148 0.348 0.154 0.537 0 0.212-0.079 0.416-0.223 0.572-0.125 0.153-0.292 0.266-0.48 0.326-0.207 0.063-0.427 0.063-0.634 0-0.269-0.087-0.517-0.227-0.731-0.412-0.231-0.201-0.424-0.441-0.571-0.709z"></path>
<path d="M36.531 8.102l-0.806-1.144 0.297-0.212 1.857 2.653-0.297 0.212-0.806-1.144-2.983 2.087-0.24-0.349 2.977-2.104z"></path>
<path d="M35.251 12.803c0.102-0.346 0.3-0.655 0.571-0.892 0.265-0.238 0.589-0.402 0.937-0.475 0.355-0.082 0.726-0.068 1.074 0.040 0.336 0.111 0.638 0.308 0.874 0.572 0.246 0.283 0.414 0.626 0.486 0.995 0.095 0.362 0.095 0.742 0 1.104-0.105 0.344-0.303 0.653-0.571 0.892-0.273 0.244-0.604 0.414-0.961 0.492s-0.729 0.062-1.079-0.046c-0.339-0.106-0.642-0.304-0.874-0.572-0.245-0.282-0.412-0.623-0.486-0.989-0.087-0.37-0.078-0.756 0.029-1.121zM36 14.621c0.191 0.217 0.438 0.378 0.714 0.463 0.285 0.083 0.586 0.092 0.875 0.028s0.558-0.2 0.782-0.394c0.211-0.194 0.367-0.441 0.451-0.715 0.080-0.289 0.087-0.594 0.023-0.887s-0.2-0.566-0.394-0.794c-0.199-0.218-0.454-0.379-0.737-0.463-0.288-0.077-0.592-0.077-0.88 0-0.291 0.056-0.56 0.193-0.777 0.395-0.213 0.195-0.369 0.444-0.451 0.72-0.078 0.29-0.078 0.596 0 0.886 0.063 0.284 0.199 0.546 0.394 0.761z"></path>
<path d="M34.817 19.441l1.48-0.572c0-0.103 0.034-0.206 0.063-0.314l0.28-1.035-1.211-0.314 0.109-0.406 3.863 1.035-0.389 1.447c-0.088 0.422-0.323 0.799-0.663 1.064-0.156 0.109-0.336 0.18-0.524 0.207s-0.381 0.012-0.562-0.047c-0.276-0.060-0.523-0.212-0.7-0.431s-0.275-0.493-0.277-0.775l-1.577 0.572 0.109-0.429zM36.731 19.601c0.067 0.122 0.158 0.228 0.267 0.314s0.235 0.148 0.368 0.184c0.134 0.036 0.274 0.044 0.411 0.024s0.269-0.067 0.388-0.139c0.252-0.203 0.424-0.488 0.486-0.806l0.274-1.029-1.937-0.52-0.274 1.029c-0.105 0.307-0.099 0.641 0.017 0.944z"></path>
<path d="M32.766 23.124l-0.291-0.223 1.714-2.259 3.189 2.419-1.657 2.19-0.291-0.223 1.4-1.847-1.143-0.863-1.251 1.652-0.286-0.217 1.28-1.652-1.183-0.898-1.48 1.921z"></path>
<path d="M31.429 27.681l-0.817 0.046v-0.274l0.817-0.006-0.44-0.68 0.223-0.143 0.434 0.686 0.354-0.766 0.246 0.131-0.389 0.721 0.817-0.046v0.28h-0.829l0.44 0.68-0.223 0.143-0.434-0.686-0.377 0.743-0.24-0.137 0.417-0.692z"></path>
<path d="M24 27.223l0.691 0.383c0.116-0.223 0.278-0.419 0.475-0.574s0.425-0.268 0.668-0.329c0.227-0.071 0.466-0.096 0.703-0.074 0.206 0.016 0.403 0.087 0.571 0.206 0.152 0.115 0.264 0.275 0.32 0.457 0.069 0.226 0.057 0.468-0.034 0.686-0.143 0.296-0.337 0.565-0.571 0.795 0.188 0.101 0.363 0.226 0.52 0.372 0.108 0.111 0.188 0.247 0.234 0.395 0.029 0.115 0.031 0.236 0.005 0.352s-0.078 0.225-0.154 0.317c-0.153 0.22-0.38 0.377-0.64 0.44-0.228 0.087-0.48 0.087-0.709 0-0.102-0.044-0.191-0.11-0.263-0.195s-0.122-0.184-0.149-0.291c-0.060-0.189-0.046-0.393 0.040-0.572 0.131-0.26 0.303-0.497 0.509-0.703l-1.377-0.766c-0.053 0.269-0.064 0.545-0.034 0.818h-0.349c-0.023-0.336 0.015-0.673 0.114-0.995l-0.72-0.4 0.149-0.32zM24.994 27.795l1.514 0.841c0.198-0.19 0.363-0.412 0.486-0.658 0.063-0.166 0.063-0.349 0-0.515-0.026-0.099-0.076-0.19-0.146-0.265s-0.157-0.131-0.254-0.164c-0.237-0.080-0.494-0.080-0.731 0-0.194 0.051-0.374 0.144-0.528 0.273s-0.278 0.289-0.363 0.471l0.023 0.017zM27.143 30.082c0.037-0.063 0.061-0.134 0.069-0.207s0-0.147-0.023-0.216c-0.035-0.113-0.098-0.215-0.183-0.297-0.145-0.123-0.305-0.228-0.474-0.314-0.173 0.172-0.325 0.363-0.451 0.572-0.069 0.13-0.085 0.281-0.046 0.423 0.018 0.065 0.050 0.126 0.093 0.178s0.097 0.095 0.158 0.125c0.145 0.055 0.306 0.055 0.451 0 0.155-0.041 0.291-0.137 0.383-0.269l0.023 0.006z"></path>
<path d="M17.034 31.632l0.080-4.003h0.406l-0.063 3.202 1.623-2.665h0.2l1.52 2.71 0.057-3.185h0.406l-0.074 4.003h-0.349l-1.68-2.991-1.777 2.933-0.349-0.006z"></path>
<path d="M15.046 27.446c0.261 0.249 0.448 0.566 0.54 0.916s0.085 0.717-0.020 1.063c-0.094 0.354-0.281 0.676-0.543 0.932-0.254 0.25-0.573 0.424-0.92 0.503-0.366 0.083-0.748 0.071-1.109-0.034-0.359-0.088-0.69-0.267-0.96-0.52-0.257-0.246-0.441-0.559-0.531-0.903-0.088-0.356-0.081-0.729 0.019-1.082s0.291-0.674 0.553-0.93c0.25-0.249 0.561-0.427 0.903-0.515 0.365-0.082 0.744-0.071 1.103 0.034 0.363 0.092 0.696 0.277 0.966 0.538zM13.097 27.246c-0.28 0.065-0.535 0.208-0.737 0.412-0.21 0.21-0.361 0.473-0.434 0.761-0.080 0.286-0.080 0.589 0 0.875 0.067 0.278 0.212 0.532 0.417 0.732 0.215 0.211 0.481 0.362 0.771 0.44 0.291 0.074 0.595 0.074 0.886 0 0.28-0.069 0.536-0.211 0.743-0.412 0.209-0.211 0.359-0.473 0.434-0.76 0.080-0.288 0.080-0.593 0-0.881-0.073-0.277-0.219-0.53-0.423-0.732-0.216-0.211-0.484-0.361-0.777-0.434-0.288-0.080-0.592-0.080-0.88 0z"></path>
<path d="M8.771 24.587l0.154 1.572c0.098 0.042 0.193 0.090 0.286 0.143l0.931 0.538 0.629-1.109 0.371 0.212-2 3.448-1.303-0.749c-0.385-0.194-0.689-0.518-0.857-0.915-0.062-0.179-0.083-0.369-0.061-0.558s0.086-0.369 0.187-0.529c0.133-0.251 0.343-0.451 0.6-0.572 0.261-0.108 0.549-0.13 0.823-0.063l-0.166-1.681 0.406 0.263zM8.12 26.394c-0.134 0.034-0.26 0.094-0.371 0.178s-0.203 0.189-0.271 0.309c-0.069 0.12-0.113 0.253-0.129 0.39s-0.005 0.277 0.034 0.41c0.134 0.296 0.366 0.536 0.657 0.68l0.92 0.532 1-1.715-0.92-0.532c-0.264-0.198-0.59-0.297-0.92-0.28v0.029z"></path>
<path d="M5.389 21.906l0.257-0.257 1.971 2.030-2.857 2.79-1.903-1.967 0.263-0.257 1.617 1.664 0.977-0.989-1.417-1.475 0.274-0.263 1.446 1.487 1.063-1.035-1.691-1.727z"></path>
<path d="M1.143 19.659l0.137-0.789 0.269 0.040-0.154 0.812 0.76-0.28 0.091 0.252-0.771 0.263 0.634 0.538-0.183 0.206-0.611-0.572-0.143 0.812-0.274-0.051 0.16-0.812-0.766 0.274-0.086-0.223 0.766-0.269-0.634-0.532 0.189-0.206 0.617 0.538z"></path>
</symbol>
</symbol>
</defs>
</svg>
